<svg viewBox="0 0 2140 1330" xmlns="http://www.w3.org/2000/svg" font-family="Helvetica, Arial, sans-serif" xmlns:c2pa="http://c2pa.org/manifest"><metadata><c2pa:manifest>AAAWgmp1bWIAAAAeanVtZGMycGEAEQAQgAAAqgA4m3EDYzJwYQAAABZcanVtYgAAAEdqdW1kYzJtYQARABCAAACqADibcQN1cm46YzJwYToxOGUwODcwZi05MTc2LTQ0YjYtODc2Yy1hOTVjYjVkYTA5YjAAAAADl2p1bWIAAAApanVtZGMyYXMAEQAQgAAAqgA4m3EDYzJwYS5hc3NlcnRpb25zAAAAALxqdW1iAAAARGp1bWRjYm9yABEAEIAAAKoAOJtxE2MycGEuaW5ncmVkaWVudC52MwAAAAAYYzJzaB6mqffAnb1bsFsJ7b6qjuAAAABwY2JvcqNpZGM6Zm9ybWF0bWltYWdlL3N2Zyt4bWxqaW5zdGFuY2VJRHgseG1wOmlpZDpkMGE3MjllMC01NGFmLTQ3NDktYWJkOS1hNWYxYzNlMGRmNGVscmVsYXRpb25zaGlwaHBhcmVudE9mAAAB4mp1bWIAAABBanVtZGNib3IAEQAQgAAAqgA4m3ETYzJwYS5hY3Rpb25zLnYyAAAAABhjMnNo+YspQum5lbDG1ddmgkIM6gAAAZljYm9yomdhY3Rpb25zgqJmYWN0aW9ua2MycGEub3BlbmVkanBhcmFtZXRlcnOha2luZ3JlZGllbnRzgaJjdXJseC1zZWxmI2p1bWJmPWMycGEuYXNzZXJ0aW9ucy9jMnBhLmluZ3JlZGllbnQudjNkaGFzaFggAWtyn18SWnxS9tz50z5+zWfvrT9e2LbemoYt7Yq0cwikZmFjdGlvbngdY29tLmFudGhyb3BpYy5jbGF1ZGUucHJvdmlkZWRqcGFyYW1ldGVyc6F4H2NvbS5hbnRocm9waWMub3JpZ2luLWNvbmZpZGVuY2VndW5rbm93bmtkZXNjcmlwdGlvbnhmQ2xhdWRlIHByb3ZpZGVkIHRoaXMgZmlsZSBhdCB0aGUgcmVxdWVzdCBvZiBhIHVzZXIgYW5kIG1heSBoYXZlIGNyZWF0ZWQgb3IgbW9kaWZpZWQgdGhlIGZpbGUgY29udGVudHMubXNvZnR3YXJlQWdlbnShZG5hbWVmQ2xhdWRlcmFsbEFjdGlvbnNJbmNsdWRlZPUAAADIanVtYgAAAEBqdW1kY2JvcgARABCAAACqADibcRNjMnBhLmhhc2guZGF0YQAAAAAYYzJzaIGPPq82dkfAuQYCwFrlE7kAAACAY2JvcqVjYWxnZnNoYTI1NmNwYWRNAAAAAAAAAAAAAAAAAGRoYXNoWCCT181dFBDKVrh3yCGuczHziErntzrk/ShnhpAkc1wsz2RuYW1lbmp1bWJmIG1hbmlmZXN0amV4Y2x1c2lvbnOBomVzdGFydBiqZmxlbmd0aBkeBAAAAj5qdW1iAAAAJ2p1bWRjMmNsABEAEIAAAKoAOJtxA2MycGEuY2xhaW0udjIAAAACD2Nib3KlY2FsZ2ZzaGEyNTZpc2lnbmF0dXJleE1zZWxmI2p1bWJmPS9jMnBhL3VybjpjMnBhOjE4ZTA4NzBmLTkxNzYtNDRiNi04NzZjLWE5NWNiNWRhMDliMC9jMnBhLnNpZ25hdHVyZWppbnN0YW5jZUlEeCx4bXA6aWlkOjgwZjFlZWE5LTNjODUtNGYzOS1hYmVlLTRlNTZmMmM1YmU0MHJjcmVhdGVkX2Fzc2VydGlvbnODomN1cmx4LXNlbGYjanVtYmY9YzJwYS5hc3NlcnRpb25zL2MycGEuaW5ncmVkaWVudC52M2RoYXNoWCABa3KfXxJafFL23PnTPn7NZ++tP17Ytt6ahi3tirRzCKJjdXJseCpzZWxmI2p1bWJmPWMycGEuYXNzZXJ0aW9ucy9jMnBhLmFjdGlvbnMudjJkaGFzaFggGsAo8Wll/gsyrpYo4nES5TxDqsg9hL5Rvz4m4075bDeiY3VybHgpc2VsZiNqdW1iZj1jMnBhLmFzc2VydGlvbnMvYzJwYS5oYXNoLmRhdGFkaGFzaFggta8/CCUcgymQabTGASwsqsW7NFPveHZlzxW+LYxLc9R0Y2xhaW1fZ2VuZXJhdG9yX2luZm+jZG5hbWVvQW50aHJvcGljIEZpbGVzZ3ZlcnNpb25lMS4wLjBrc3BlY1ZlcnNpb25lMi40LjAAABA4anVtYgAAAChqdW1kYzJjcwARABCAAACqADibcQNjMnBhLnNpZ25hdHVyZQAAABAIY2JvctKEWQISogEmGCFZAgowggIGMIIBjaADAgECAhRA5aAK7sI50L64g/oGQgU9Z1UTADAKBggqhkjOPQQDAzBJMRcwFQYDVQQKEw5BbnRocm9waWMsIFBCQzEuMCwGA1UEAxMlQW50aHJvcGljIENvbnRlbnQgQ3JlZGVudGlhbHMgUm9vdCBDQTAeFw0yNjA4MDcxODQzNTZaFw0yODA4MDYxOTQzNTZaMEQxFzAVBgNVBAoTDkFudGhyb3BpYywgUEJDMSkwJwYDVQQDEyBBbnRocm9waWMgQ2xhdWRlIENvbnRlbnQgU2lnbmluZzBZMBMGByqGSM49AgEGCCqGSM49AwEHA0IABJh6CmvLUBgFFNU0vUKlOVtE6djd17L5SuwX0LemFisBM3dkd/3cyjxFA3Qo5S46fX0/ihY0VZ7mfb9KF703t5OjWDBWMA4GA1UdDwEB/wQEAwIHgDAVBgNVHSUEDjAMBgorBgEEAYPoXgIBMAwGA1UdEwEB/wQCMAAwHwYDVR0jBBgwFoAUzlHiBIFOZFsj+OPEz5o+nMHXXMIwCgYIKoZIzj0EAwMDZwAwZAIwMXMdFJ4BetLLVY7ORuE9noqbbAZOZn/aArXyTwFAZfKrPzxF2vPoJNf1+UCdg1XGAjBwX1zd9WGqYkqmL5SFqw1QySjr1zJfpJM9+1rdDwSPLMOPOjKuiXjoU/pUUeG9RwmhY3BhZFkNngAAAAAAAAAAAAAAAAAAAAAAAAAAAAAAAAAAAAAAAAAAAAAAAAAAAAAAAAAAAAAAAAAAAAAAAAAAAAAAAAAAAAAAAAAAAAAAAAAAAAAAAAAAAAAAAAAAAAAAAAAAAAAAAAAAAAAAAAAAAAAAAAAAAAAAAAAAAAAAAAAAAAAAAAAAAAAAAAAAAAAAAAAAAAAAAAAAAAAAAAAAAAAAAAAAAAAAAAAAAAAAAAAAAAAAAAAAAAAAAAAAAAAAAAAAAAAAAAAAAAAAAAAAAAAAAAAAAAAAAAAAAAAAAAAAAAAAAAAAAAAAAAAAAAAAAAAAAAAAAAAAAAAAAAAAAAAAAAAAAAAAAAAAAAAAAAAAAAAAAAAAAAAAAAAAAAAAAAAAAAAAAAAAAAAAAAAAAAAAAAAAAAAAAAAAAAAAAAAAAAAAAAAAAAAAAAAAAAAAAAAAAAAAAAAAAAAAAAAAAAAAAAAAAAAAAAAAAAAAAAAAAAAAAAAAAAAAAAAAAAAAAAAAAAAAAAAAAAAAAAAAAAAAAAAAAAAAAAAAAAAAAAAAAAAAAAAAAAAAAAAAAAAAAAAAAAAAAAAAAAAAAAAAAAAAAAAAAAAAAAAAAAAAAAAAAAAAAAAAAAAAAAAAAAAAAAAAAAAAAAAAAAAAAAAAAAAAAAAAAAAAAAAAAAAAAAAAAAAAAAAAAAAAAAAAAAAAAAAAAAAAAAAAAAAAAAAAAAAAAAAAAAAAAAAAAAAAAAAAAAAAAAAAAAAAAAAAAAAAAAAAAAAAAAAAAAAAAAAAAAAAAAAAAAAAAAAAAAAAAAAAAAAAAAAAAAAAAAAAAAAAAAAAAAAAAAAAAAAAAAAAAAAAAAAAAAAAAAAAAAAAAAAAAAAAAAAAAAAAAAAAAAAAAAAAAAAAAAAAAAAAAAAAAAAAAAAAAAAAAAAAAAAAAAAAAAAAAAAAAAAAAAAAAAAAAAAAAAAAAAAAAAAAAAAAAAAAAAAAAAAAAAAAAAAAAAAAAAAAAAAAAAAAAAAAAAAAAAAAAAAAAAAAAAAAAAAAAAAAAAAAAAAAAAAAAAAAAAAAAAAAAAAAAAAAAAAAAAAAAAAAAAAAAAAAAAAAAAAAAAAAAAAAAAAAAAAAAAAAAAAAAAAAAAAAAAAAAAAAAAAAAAAAAAAAAAAAAAAAAAAAAAAAAAAAAAAAAAAAAAAAAAAAAAAAAAAAAAAAAAAAAAAAAAAAAAAAAAAAAAAAAAAAAAAAAAAAAAAAAAAAAAAAAAAAAAAAAAAAAAAAAAAAAAAAAAAAAAAAAAAAAAAAAAAAAAAAAAAAAAAAAAAAAAAAAAAAAAAAAAAAAAAAAAAAAAAAAAAAAAAAAAAAAAAAAAAAAAAAAAAAAAAAAAAAAAAAAAAAAAAAAAAAAAAAAAAAAAAAAAAAAAAAAAAAAAAAAAAAAAAAAAAAAAAAAAAAAAAAAAAAAAAAAAAAAAAAAAAAAAAAAAAAAAAAAAAAAAAAAAAAAAAAAAAAAAAAAAAAAAAAAAAAAAAAAAAAAAAAAAAAAAAAAAAAAAAAAAAAAAAAAAAAAAAAAAAAAAAAAAAAAAAAAAAAAAAAAAAAAAAAAAAAAAAAAAAAAAAAAAAAAAAAAAAAAAAAAAAAAAAAAAAAAAAAAAAAAAAAAAAAAAAAAAAAAAAAAAAAAAAAAAAAAAAAAAAAAAAAAAAAAAAAAAAAAAAAAAAAAAAAAAAAAAAAAAAAAAAAAAAAAAAAAAAAAAAAAAAAAAAAAAAAAAAAAAAAAAAAAAAAAAAAAAAAAAAAAAAAAAAAAAAAAAAAAAAAAAAAAAAAAAAAAAAAAAAAAAAAAAAAAAAAAAAAAAAAAAAAAAAAAAAAAAAAAAAAAAAAAAAAAAAAAAAAAAAAAAAAAAAAAAAAAAAAAAAAAAAAAAAAAAAAAAAAAAAAAAAAAAAAAAAAAAAAAAAAAAAAAAAAAAAAAAAAAAAAAAAAAAAAAAAAAAAAAAAAAAAAAAAAAAAAAAAAAAAAAAAAAAAAAAAAAAAAAAAAAAAAAAAAAAAAAAAAAAAAAAAAAAAAAAAAAAAAAAAAAAAAAAAAAAAAAAAAAAAAAAAAAAAAAAAAAAAAAAAAAAAAAAAAAAAAAAAAAAAAAAAAAAAAAAAAAAAAAAAAAAAAAAAAAAAAAAAAAAAAAAAAAAAAAAAAAAAAAAAAAAAAAAAAAAAAAAAAAAAAAAAAAAAAAAAAAAAAAAAAAAAAAAAAAAAAAAAAAAAAAAAAAAAAAAAAAAAAAAAAAAAAAAAAAAAAAAAAAAAAAAAAAAAAAAAAAAAAAAAAAAAAAAAAAAAAAAAAAAAAAAAAAAAAAAAAAAAAAAAAAAAAAAAAAAAAAAAAAAAAAAAAAAAAAAAAAAAAAAAAAAAAAAAAAAAAAAAAAAAAAAAAAAAAAAAAAAAAAAAAAAAAAAAAAAAAAAAAAAAAAAAAAAAAAAAAAAAAAAAAAAAAAAAAAAAAAAAAAAAAAAAAAAAAAAAAAAAAAAAAAAAAAAAAAAAAAAAAAAAAAAAAAAAAAAAAAAAAAAAAAAAAAAAAAAAAAAAAAAAAAAAAAAAAAAAAAAAAAAAAAAAAAAAAAAAAAAAAAAAAAAAAAAAAAAAAAAAAAAAAAAAAAAAAAAAAAAAAAAAAAAAAAAAAAAAAAAAAAAAAAAAAAAAAAAAAAAAAAAAAAAAAAAAAAAAAAAAAAAAAAAAAAAAAAAAAAAAAAAAAAAAAAAAAAAAAAAAAAAAAAAAAAAAAAAAAAAAAAAAAAAAAAAAAAAAAAAAAAAAAAAAAAAAAAAAAAAAAAAAAAAAAAAAAAAAAAAAAAAAAAAAAAAAAAAAAAAAAAAAAAAAAAAAAAAAAAAAAAAAAAAAAAAAAAAAAAAAAAAAAAAAAAAAAAAAAAAAAAAAAAAAAAAAAAAAAAAAAAAAAAAAAAAAAAAAAAAAAAAAAAAAAAAAAAAAAAAAAAAAAAAAAAAAAAAAAAAAAAAAAAAAAAAAAAAAAAAAAAAAAAAAAAAAAAAAAAAAAAAAAAAAAAAAAAAAAAAAAAAAAAAAAAAAAAAAAAAAAAAAAAAAAAAAAAAAAAAAAAAAAAAAAAAAAAAAAAAAAAAAAAAAAAAAAAAAAAAAAAAAAAAAAAAAAAAAAAAAAAAAAAAAAAAAAAAAAAAAAAAAAAAAAAAAAAAAAAAAAAAAAAAAAAAAAAAAAAAAAAAAAAAAAAAAAAAAAAAAAAAAAAAAAAAAAAAAAAAAAAAAAAAAAAAAAAAAAAAAAAAAAAAAAAAAAAAAAAAAAAAAAAAAAAAAAAAAAAAAAAAAAAAAAAAAAAAAAAAAAAAAAAAAAAAAAAAAAAAAAAAAAAAAAAAAAAAAAAAAAAAAAAAAAAAAAAAAAAAAAAAAAAAAAAAAAAAAAAAAAAAAAAAAAAAAAAAAAAAAAAAAAAAAAAAAAAAAAAAAAAAAAAAAAAAAAAAAAAAAAAAAAAAAAAAAAAAAAAAAAAAAAAAAAAAAAAAAAAAAAAAAAAAAAAAAAAAAAAAAAAAAAAAAAAAAAAAAAAAAAAAAAAAAAAAAAAAAAAAAAAAAAAAAAAAAAAAAAAAAAAAAAAAAAAAAAAAAAAAAAAAAAAAAAAAAAAAAAAAAAAAAAAAAAAAAAAAAAAAAAAAAAAAAAAAAAAAAAAAAAAAAAAAAAAAAAAAAAAAAAAAAAAAAAAAAAAAAAAAAAAAAAAAAAAAAAAAAAAAAAAAAAAAAAAAAAAAAAAAAAAAAAAAAAAAAAAAAAAAAAAAAAAAAAAAAAAAAAAAAAAAAAAAAAAAAAAAAAAAAAAAAAAAAAAAAAAAAAAAAAAAAAAAAAAAAAAAAAAAAAAAAAAAAAAAAAAAAAAAAAAAAAAAAAAAAAAAAAAAAAAAAAAAAAAAAAAAAAAAAAAAAAAAAAAAAAAAAAAAAAAAAAAAAAAAAAAAAAAAAAAAAAAAAAAAAAAAAAAAAAAAAAAAAAAAAAAAAAAAAAAAAAAAAAAAAAAAAAAAAAAAAAAAAAAAAAAAAAAAAAAAAAAAAAAAAAAAAAAAAAAAAAAAAAAAAAAAAAAAAAAAAAAAAAAAAAAAAAAAAAAAAAAAAAAAAAAAAAAAAAAAAAAAAAAAAAAAAAAAAAAAAAAAAAAAAAAAAAAAAAAAAAAAAAAAAAAAAAAAAAAAAAAAAAAAAAAAAAAAAAAAAAAAAAAAAAAAAAAAAAAAAAAAAAAAAAAAAAAAAAAAAAAAAAAAAAAAAAAAAAAAAAAAAAAAAAAAAAAAAAAAAAAAAAAAAAAAAAAAAAAAAAAAAAAAAAAAAAAAAAAAAAAAAAAAAAAAAAAAAAAAAAAAAAAAAAAAAAAAAAAAAAAAAAAAAAAAAAAAAAAAAAAAAAAAAAAAAAAAAAAAAAAAAAAAAAAAAAAAAAAAAAAAAAAAAAAAAAAAAAAAAAAAAAAAAAAAAAAAAAAAAAAAAAAAAAAAAAAAAAAAAAAAAAAAAAAAAAAAAAAAAAAAAAAAAAAAAAAAAAAAAAAAAAAAAAAAAAAAAAAAAAAAAAAAAAAAAAAAAAAAAAAAAAAAAAAAAAAAAAAAAAAAAAAAAAAAAAAAAAAAAAAAAAAAAAAAAAAAAAAAAAAAAAAAAAAAAAAAAAAAAAAAAAAAAAAAAAAAAAAAAAAAAAAAAAAAAAAPZYQM68e/XzQkw/fL0uTDcBnvwgC6fOKQkua9/nfYKZFUzvpE2wWBYORnh1qcySTznT5AOhg3bavsGsNH4zHGPp0Hs=</c2pa:manifest></metadata>
<rect width="2140" height="1330" fill="white"/>
<text x="1070.0" y="38" text-anchor="middle" font-size="24" font-weight="bold" font-style="normal" fill="black">Physical View (UML Deployment Diagram) - Sistem PahamHukum</text>
<line x1="715.0" y1="334" x2="715.0" y2="494" stroke="black" stroke-width="1.6"/>
<rect x="723.0" y="390" width="86" height="36" fill="white"/>
<text x="727.0" y="404" text-anchor="start" font-size="13" font-weight="normal" font-style="normal" fill="black">«internet»</text>
<text x="727.0" y="421" text-anchor="start" font-size="12" font-weight="normal" font-style="italic" fill="black">{HTTPS}</text>
<text x="707.0" y="356" text-anchor="end" font-size="14" font-weight="normal" font-style="normal" fill="black">n</text>
<text x="707.0" y="486" text-anchor="end" font-size="14" font-weight="normal" font-style="normal" fill="black">1</text>
<line x1="946" y1="212" x2="1210" y2="212" stroke="black" stroke-width="1.6"/>
<text x="1078.0" y="186" text-anchor="middle" font-size="13" font-weight="normal" font-style="normal" fill="black">«internet»</text>
<text x="1078.0" y="203" text-anchor="middle" font-size="12" font-weight="normal" font-style="italic" fill="black">{hyperlink}</text>
<text x="956" y="230" text-anchor="start" font-size="14" font-weight="normal" font-style="normal" fill="black">n</text>
<text x="1200" y="230" text-anchor="end" font-size="14" font-weight="normal" font-style="normal" fill="black">1</text>
<line x1="1616" y1="572" x2="1822" y2="572" stroke="black" stroke-width="1.6"/>
<text x="1727.0" y="546" text-anchor="middle" font-size="13" font-weight="normal" font-style="normal" fill="black">«intranet»</text>
<text x="1727.0" y="563" text-anchor="middle" font-size="12" font-weight="normal" font-style="italic" fill="black">{SQL}</text>
<text x="1640" y="590" text-anchor="start" font-size="14" font-weight="normal" font-style="normal" fill="black">1</text>
<text x="1812" y="590" text-anchor="end" font-size="14" font-weight="normal" font-style="normal" fill="black">1</text>
<polygon points="930,120 946,104 946,318 930,334" fill="#dde3ec" stroke="black" stroke-width="1.4"/>
<polygon points="500,120 516,104 946,104 930,120" fill="#f6f8fb" stroke="black" stroke-width="1.4"/>
<rect x="500" y="120" width="430" height="214" fill="#eef2f7" stroke="black" stroke-width="1.4"/>
<text x="715.0" y="144" text-anchor="middle" font-size="12.5" font-weight="normal" font-style="normal" fill="black">«Device»</text>
<text x="715.0" y="164" text-anchor="middle" font-size="17" font-weight="bold" font-style="normal" fill="black" text-decoration="underline">:Perangkat Klien</text>
<text x="715.0" y="182" text-anchor="middle" font-size="11.5" font-weight="normal" font-style="italic" fill="#333">komputer atau ponsel; OS lintas platform</text>
<rect x="520" y="194" width="390" height="128" fill="#cfcfcf" stroke="black" stroke-width="1.2"/>
<text x="715.0" y="240" text-anchor="middle" font-size="12" font-weight="normal" font-style="normal" fill="black">«Execution Environment»</text>
<text x="715.0" y="260" text-anchor="middle" font-size="14" font-weight="bold" font-style="normal" fill="black">:Peramban Web</text>
<text x="715.0" y="280" text-anchor="middle" font-size="11.5" font-weight="normal" font-style="italic" fill="#222">Chrome, Firefox, Edge, atau Safari</text>
<text x="715.0" y="296" text-anchor="middle" font-size="11.5" font-weight="normal" font-style="italic" fill="#222">(rilis dua tahun terakhir)</text>
<polygon points="1640,145 1656,129 1656,269 1640,285" fill="#dde3ec" stroke="black" stroke-width="1.4" stroke-dasharray="8,5"/>
<polygon points="1210,145 1226,129 1656,129 1640,145" fill="#f6f8fb" stroke="black" stroke-width="1.4" stroke-dasharray="8,5"/>
<rect x="1210" y="145" width="430" height="140" fill="white" stroke="black" stroke-width="1.4" stroke-dasharray="8,5"/>
<text x="1425.0" y="175" text-anchor="middle" font-size="12.5" font-weight="normal" font-style="normal" fill="black">«Device»</text>
<text x="1425.0" y="197" text-anchor="middle" font-size="17" font-weight="bold" font-style="normal" fill="black" text-decoration="underline">:Sumber Hukum Resmi</text>
<text x="1425.0" y="223" text-anchor="middle" font-size="12" font-weight="normal" font-style="italic" fill="#333">JDIH, peraturan.bpk.go.id</text>
<text x="1425.0" y="243" text-anchor="middle" font-size="12" font-weight="normal" font-style="italic" fill="#333">(sistem eksternal, di luar PahamHukum)</text>
<polygon points="1616,510 1632,494 1632,664 1616,680" fill="#dde3ec" stroke="black" stroke-width="1.4"/>
<polygon points="60,510 76,494 1632,494 1616,510" fill="#f6f8fb" stroke="black" stroke-width="1.4"/>
<rect x="60" y="510" width="1556" height="170" fill="#eef2f7" stroke="black" stroke-width="1.4"/>
<text x="838.0" y="534" text-anchor="middle" font-size="12.5" font-weight="normal" font-style="normal" fill="black">«Device»</text>
<text x="838.0" y="554" text-anchor="middle" font-size="17" font-weight="bold" font-style="normal" fill="black" text-decoration="underline">:Web Server</text>
<text x="838.0" y="572" text-anchor="middle" font-size="11.5" font-weight="normal" font-style="italic" fill="#333">cloud hosting gratis atau berbiaya rendah</text>
<rect x="80" y="588" width="1250" height="78" fill="#cfcfcf" stroke="black" stroke-width="1.2"/>
<text x="705.0" y="612" text-anchor="middle" font-size="12" font-weight="normal" font-style="normal" fill="black">«Execution Environment»</text>
<text x="705.0" y="633" text-anchor="middle" font-size="14" font-weight="bold" font-style="normal" fill="black">:Application Server</text>
<text x="705.0" y="652" text-anchor="middle" font-size="11.5" font-weight="normal" font-style="italic" fill="#222">menjalankan lapisan View, Controller, dan Model dalam satu proses aplikasi</text>
<rect x="1366" y="588" width="230" height="78" fill="#cfcfcf" stroke="black" stroke-width="1.2"/>
<text x="1481.0" y="612" text-anchor="middle" font-size="12" font-weight="normal" font-style="normal" fill="black">«File System»</text>
<text x="1481.0" y="633" text-anchor="middle" font-size="14" font-weight="bold" font-style="normal" fill="black">:Sistem Berkas Server</text>
<text x="1481.0" y="652" text-anchor="middle" font-size="11.5" font-weight="normal" font-style="italic" fill="#222">penyimpanan sisi server</text>
<polygon points="2112,510 2128,494 2128,664 2112,680" fill="#dde3ec" stroke="black" stroke-width="1.4"/>
<polygon points="1822,510 1838,494 2128,494 2112,510" fill="#f6f8fb" stroke="black" stroke-width="1.4"/>
<rect x="1822" y="510" width="290" height="170" fill="#eef2f7" stroke="black" stroke-width="1.4"/>
<text x="1967.0" y="534" text-anchor="middle" font-size="12.5" font-weight="normal" font-style="normal" fill="black">«Device»</text>
<text x="1967.0" y="554" text-anchor="middle" font-size="17" font-weight="bold" font-style="normal" fill="black" text-decoration="underline">:Database Server</text>
<rect x="1842" y="588" width="250" height="78" fill="#cfcfcf" stroke="black" stroke-width="1.2"/>
<text x="1967.0" y="612" text-anchor="middle" font-size="12" font-weight="normal" font-style="normal" fill="black">«Database System»</text>
<text x="1967.0" y="633" text-anchor="middle" font-size="14" font-weight="bold" font-style="normal" fill="black">:PostgreSQL / MySQL</text>
<text x="1967.0" y="652" text-anchor="middle" font-size="11.5" font-weight="normal" font-style="italic" fill="#222">DBMS relasional</text>
<polygon points="90,400 406,400 420,414 420,452 90,452" fill="#fffbe6" stroke="black" stroke-width="1"/>
<polyline points="406,400 406,414 420,414" fill="none" stroke="black" stroke-width="1"/>
<text x="98" y="420" text-anchor="start" font-size="11.5" font-weight="normal" font-style="normal" fill="black">Server: web server pada cloud hosting,</text>
<text x="98" y="435" text-anchor="start" font-size="11.5" font-weight="normal" font-style="normal" fill="black">dukungan HTTPS</text>
<line x1="255" y1="452" x2="255" y2="498" stroke="black" stroke-width="1" stroke-dasharray="4,3"/>
<polygon points="835.0,372 1121.0,372 1135.0,386 1135.0,424 835.0,424" fill="#fffbe6" stroke="black" stroke-width="1"/>
<polyline points="1121.0,372 1121.0,386 1135.0,386" fill="none" stroke="black" stroke-width="1"/>
<text x="843.0" y="392" text-anchor="start" font-size="11.5" font-weight="normal" font-style="normal" fill="black">Jaringan: koneksi internet minimal 1 Mbps,</text>
<text x="843.0" y="407" text-anchor="start" font-size="11.5" font-weight="normal" font-style="normal" fill="black">beranda termuat paling lama 3 detik</text>
<line x1="835.0" y1="388" x2="715.0" y2="388" stroke="black" stroke-width="1" stroke-dasharray="4,3"/>
<rect x="90" y="202" width="240" height="40" fill="white" stroke="black" stroke-width="1.2"/>
<rect x="310" y="207" width="14" height="10" fill="white" stroke="black" stroke-width="1"/>
<rect x="306" y="209" width="8" height="2.6" fill="white" stroke="black" stroke-width="0.9"/>
<rect x="306" y="212.6" width="8" height="2.6" fill="white" stroke="black" stroke-width="0.9"/>
<text x="210.0" y="216" text-anchor="middle" font-size="9.5" font-weight="normal" font-style="normal" fill="#444">«artifact»</text>
<text x="210.0" y="234" text-anchor="middle" font-size="11" font-weight="normal" font-style="normal" fill="black">:HalamanRangkumanKasus</text>
<line x1="330" y1="222" x2="520" y2="222" stroke="black" stroke-width="1.5" stroke-dasharray="7,5"/>
<polyline points="510.0,226.5 520,222 510.0,217.5" fill="none" stroke="black" stroke-width="1.5"/>
<rect x="392" y="202" width="62" height="16" fill="white"/>
<text x="423" y="214" text-anchor="middle" font-size="11" font-weight="normal" font-style="normal" fill="black">«deploy»</text>
<rect x="90" y="248" width="240" height="40" fill="white" stroke="black" stroke-width="1.2"/>
<rect x="310" y="253" width="14" height="10" fill="white" stroke="black" stroke-width="1"/>
<rect x="306" y="255" width="8" height="2.6" fill="white" stroke="black" stroke-width="0.9"/>
<rect x="306" y="258.6" width="8" height="2.6" fill="white" stroke="black" stroke-width="0.9"/>
<text x="210.0" y="262" text-anchor="middle" font-size="9.5" font-weight="normal" font-style="normal" fill="#444">«artifact»</text>
<text x="210.0" y="280" text-anchor="middle" font-size="11" font-weight="normal" font-style="normal" fill="black">:KontrolChecklist</text>
<line x1="330" y1="268" x2="520" y2="268" stroke="black" stroke-width="1.5" stroke-dasharray="7,5"/>
<polyline points="510.0,272.5 520,268 510.0,263.5" fill="none" stroke="black" stroke-width="1.5"/>
<rect x="392" y="248" width="62" height="16" fill="white"/>
<text x="423" y="260" text-anchor="middle" font-size="11" font-weight="normal" font-style="normal" fill="black">«deploy»</text>
<rect x="90" y="294" width="240" height="40" fill="white" stroke="black" stroke-width="1.2"/>
<rect x="310" y="299" width="14" height="10" fill="white" stroke="black" stroke-width="1"/>
<rect x="306" y="301" width="8" height="2.6" fill="white" stroke="black" stroke-width="0.9"/>
<rect x="306" y="304.6" width="8" height="2.6" fill="white" stroke="black" stroke-width="0.9"/>
<text x="210.0" y="308" text-anchor="middle" font-size="9.5" font-weight="normal" font-style="normal" fill="#444">«artifact»</text>
<text x="210.0" y="326" text-anchor="middle" font-size="11" font-weight="normal" font-style="normal" fill="black">:Penyimpanan Lokal Peramban</text>
<line x1="330" y1="314" x2="520" y2="314" stroke="black" stroke-width="1.5" stroke-dasharray="7,5"/>
<polyline points="510.0,318.5 520,314 510.0,309.5" fill="none" stroke="black" stroke-width="1.5"/>
<rect x="392" y="294" width="62" height="16" fill="white"/>
<text x="423" y="306" text-anchor="middle" font-size="11" font-weight="normal" font-style="normal" fill="black">«deploy»</text>
<polygon points="60,62 456,62 470,76 470,114 60,114" fill="#fffbe6" stroke="black" stroke-width="1"/>
<polyline points="456,62 456,76 470,76" fill="none" stroke="black" stroke-width="1"/>
<text x="68" y="82" text-anchor="start" font-size="11" font-weight="normal" font-style="normal" fill="black">Sisi klien (UC03, KF13, KF14, KNF06): hitung kelengkapan dan</text>
<text x="68" y="97" text-anchor="start" font-size="11" font-weight="normal" font-style="normal" fill="black">simpan/muat status centang di peramban, tidak dikirim ke server.</text>
<line x1="210" y1="114" x2="210" y2="201" stroke="black" stroke-width="1" stroke-dasharray="4,3"/>
<rect x="80" y="790" width="406" height="230" fill="#fafafa" stroke="#555" stroke-width="1.2" stroke-dasharray="6,4" rx="8"/>
<text x="283.0" y="811" text-anchor="middle" font-size="14" font-weight="bold" font-style="normal" fill="black">View (8 komponen)</text>
<rect x="92" y="822" width="186" height="40" fill="white" stroke="black" stroke-width="1.2"/>
<rect x="258" y="827" width="14" height="10" fill="white" stroke="black" stroke-width="1"/>
<rect x="254" y="829" width="8" height="2.6" fill="white" stroke="black" stroke-width="0.9"/>
<rect x="254" y="832.6" width="8" height="2.6" fill="white" stroke="black" stroke-width="0.9"/>
<text x="185.0" y="836" text-anchor="middle" font-size="9.5" font-weight="normal" font-style="normal" fill="#444">«artifact»</text>
<text x="185.0" y="854" text-anchor="middle" font-size="11" font-weight="normal" font-style="normal" fill="black">:HalamanJelajahKasus</text>
<rect x="288" y="822" width="186" height="40" fill="white" stroke="black" stroke-width="1.2"/>
<rect x="454" y="827" width="14" height="10" fill="white" stroke="black" stroke-width="1"/>
<rect x="450" y="829" width="8" height="2.6" fill="white" stroke="black" stroke-width="0.9"/>
<rect x="450" y="832.6" width="8" height="2.6" fill="white" stroke="black" stroke-width="0.9"/>
<text x="381.0" y="836" text-anchor="middle" font-size="9.5" font-weight="normal" font-style="normal" fill="#444">«artifact»</text>
<text x="381.0" y="854" text-anchor="middle" font-size="11" font-weight="normal" font-style="normal" fill="black">:HalamanRangkumanKasus</text>
<rect x="92" y="870" width="186" height="40" fill="white" stroke="black" stroke-width="1.2"/>
<rect x="258" y="875" width="14" height="10" fill="white" stroke="black" stroke-width="1"/>
<rect x="254" y="877" width="8" height="2.6" fill="white" stroke="black" stroke-width="0.9"/>
<rect x="254" y="880.6" width="8" height="2.6" fill="white" stroke="black" stroke-width="0.9"/>
<text x="185.0" y="884" text-anchor="middle" font-size="9.5" font-weight="normal" font-style="normal" fill="#444">«artifact»</text>
<text x="185.0" y="902" text-anchor="middle" font-size="11" font-weight="normal" font-style="normal" fill="black">:HalamanPencarianKataKunci</text>
<rect x="288" y="870" width="186" height="40" fill="white" stroke="black" stroke-width="1.2"/>
<rect x="454" y="875" width="14" height="10" fill="white" stroke="black" stroke-width="1"/>
<rect x="450" y="877" width="8" height="2.6" fill="white" stroke="black" stroke-width="0.9"/>
<rect x="450" y="880.6" width="8" height="2.6" fill="white" stroke="black" stroke-width="0.9"/>
<text x="381.0" y="884" text-anchor="middle" font-size="9.5" font-weight="normal" font-style="normal" fill="#444">«artifact»</text>
<text x="381.0" y="902" text-anchor="middle" font-size="11" font-weight="normal" font-style="normal" fill="black">:HalamanLogin</text>
<rect x="92" y="918" width="186" height="40" fill="white" stroke="black" stroke-width="1.2"/>
<rect x="258" y="923" width="14" height="10" fill="white" stroke="black" stroke-width="1"/>
<rect x="254" y="925" width="8" height="2.6" fill="white" stroke="black" stroke-width="0.9"/>
<rect x="254" y="928.6" width="8" height="2.6" fill="white" stroke="black" stroke-width="0.9"/>
<text x="185.0" y="932" text-anchor="middle" font-size="9.5" font-weight="normal" font-style="normal" fill="#444">«artifact»</text>
<text x="185.0" y="950" text-anchor="middle" font-size="11" font-weight="normal" font-style="normal" fill="black">:HalamanPenyusunanKonten</text>
<rect x="288" y="918" width="186" height="40" fill="white" stroke="black" stroke-width="1.2"/>
<rect x="454" y="923" width="14" height="10" fill="white" stroke="black" stroke-width="1"/>
<rect x="450" y="925" width="8" height="2.6" fill="white" stroke="black" stroke-width="0.9"/>
<rect x="450" y="928.6" width="8" height="2.6" fill="white" stroke="black" stroke-width="0.9"/>
<text x="381.0" y="932" text-anchor="middle" font-size="9.5" font-weight="normal" font-style="normal" fill="#444">«artifact»</text>
<text x="381.0" y="950" text-anchor="middle" font-size="11" font-weight="normal" font-style="normal" fill="black">:HalamanDaftarKontenKurator</text>
<rect x="92" y="966" width="186" height="40" fill="white" stroke="black" stroke-width="1.2"/>
<rect x="258" y="971" width="14" height="10" fill="white" stroke="black" stroke-width="1"/>
<rect x="254" y="973" width="8" height="2.6" fill="white" stroke="black" stroke-width="0.9"/>
<rect x="254" y="976.6" width="8" height="2.6" fill="white" stroke="black" stroke-width="0.9"/>
<text x="185.0" y="980" text-anchor="middle" font-size="9.5" font-weight="normal" font-style="normal" fill="#444">«artifact»</text>
<text x="185.0" y="998" text-anchor="middle" font-size="11" font-weight="normal" font-style="normal" fill="black">:HalamanModerasiKonten</text>
<rect x="288" y="966" width="186" height="40" fill="white" stroke="black" stroke-width="1.2"/>
<rect x="454" y="971" width="14" height="10" fill="white" stroke="black" stroke-width="1"/>
<rect x="450" y="973" width="8" height="2.6" fill="white" stroke="black" stroke-width="0.9"/>
<rect x="450" y="976.6" width="8" height="2.6" fill="white" stroke="black" stroke-width="0.9"/>
<text x="381.0" y="980" text-anchor="middle" font-size="9.5" font-weight="normal" font-style="normal" fill="#444">«artifact»</text>
<text x="381.0" y="998" text-anchor="middle" font-size="11" font-weight="normal" font-style="normal" fill="black">:HalamanPengelolaanAkun</text>
<line x1="283.0" y1="790" x2="283.0" y2="666" stroke="black" stroke-width="1.5" stroke-dasharray="7,5"/>
<polyline points="287.5,676.0 283.0,666 278.5,676.0" fill="none" stroke="black" stroke-width="1.5"/>
<rect x="291.0" y="738" width="62" height="18" fill="white"/>
<text x="322.0" y="752" text-anchor="middle" font-size="11.5" font-weight="normal" font-style="normal" fill="black">«deploy»</text>
<rect x="502" y="790" width="406" height="278" fill="#fafafa" stroke="#555" stroke-width="1.2" stroke-dasharray="6,4" rx="8"/>
<text x="705.0" y="811" text-anchor="middle" font-size="14" font-weight="bold" font-style="normal" fill="black">Controller (9 komponen)</text>
<rect x="514" y="822" width="186" height="40" fill="white" stroke="black" stroke-width="1.2"/>
<rect x="680" y="827" width="14" height="10" fill="white" stroke="black" stroke-width="1"/>
<rect x="676" y="829" width="8" height="2.6" fill="white" stroke="black" stroke-width="0.9"/>
<rect x="676" y="832.6" width="8" height="2.6" fill="white" stroke="black" stroke-width="0.9"/>
<text x="607.0" y="836" text-anchor="middle" font-size="9.5" font-weight="normal" font-style="normal" fill="#444">«artifact»</text>
<text x="607.0" y="854" text-anchor="middle" font-size="11" font-weight="normal" font-style="normal" fill="black">:KontrolJelajahKasus</text>
<rect x="710" y="822" width="186" height="40" fill="white" stroke="black" stroke-width="1.2"/>
<rect x="876" y="827" width="14" height="10" fill="white" stroke="black" stroke-width="1"/>
<rect x="872" y="829" width="8" height="2.6" fill="white" stroke="black" stroke-width="0.9"/>
<rect x="872" y="832.6" width="8" height="2.6" fill="white" stroke="black" stroke-width="0.9"/>
<text x="803.0" y="836" text-anchor="middle" font-size="9.5" font-weight="normal" font-style="normal" fill="#444">«artifact»</text>
<text x="803.0" y="854" text-anchor="middle" font-size="11" font-weight="normal" font-style="normal" fill="black">:KontrolPencarianKataKunci</text>
<rect x="514" y="870" width="186" height="40" fill="white" stroke="black" stroke-width="1.2"/>
<rect x="680" y="875" width="14" height="10" fill="white" stroke="black" stroke-width="1"/>
<rect x="676" y="877" width="8" height="2.6" fill="white" stroke="black" stroke-width="0.9"/>
<rect x="676" y="880.6" width="8" height="2.6" fill="white" stroke="black" stroke-width="0.9"/>
<text x="607.0" y="884" text-anchor="middle" font-size="9.5" font-weight="normal" font-style="normal" fill="#444">«artifact»</text>
<text x="607.0" y="902" text-anchor="middle" font-size="11" font-weight="normal" font-style="normal" fill="black">:KontrolChecklist</text>
<rect x="710" y="870" width="186" height="40" fill="white" stroke="black" stroke-width="1.2"/>
<rect x="876" y="875" width="14" height="10" fill="white" stroke="black" stroke-width="1"/>
<rect x="872" y="877" width="8" height="2.6" fill="white" stroke="black" stroke-width="0.9"/>
<rect x="872" y="880.6" width="8" height="2.6" fill="white" stroke="black" stroke-width="0.9"/>
<text x="803.0" y="884" text-anchor="middle" font-size="9.5" font-weight="normal" font-style="normal" fill="#444">«artifact»</text>
<text x="803.0" y="902" text-anchor="middle" font-size="11" font-weight="normal" font-style="normal" fill="black">:KontrolUnduhTemplat</text>
<rect x="514" y="918" width="186" height="40" fill="white" stroke="black" stroke-width="1.2"/>
<rect x="680" y="923" width="14" height="10" fill="white" stroke="black" stroke-width="1"/>
<rect x="676" y="925" width="8" height="2.6" fill="white" stroke="black" stroke-width="0.9"/>
<rect x="676" y="928.6" width="8" height="2.6" fill="white" stroke="black" stroke-width="0.9"/>
<text x="607.0" y="932" text-anchor="middle" font-size="9.5" font-weight="normal" font-style="normal" fill="#444">«artifact»</text>
<text x="607.0" y="950" text-anchor="middle" font-size="11" font-weight="normal" font-style="normal" fill="black">:KontrolAutentikasi</text>
<rect x="710" y="918" width="186" height="40" fill="white" stroke="black" stroke-width="1.2"/>
<rect x="876" y="923" width="14" height="10" fill="white" stroke="black" stroke-width="1"/>
<rect x="872" y="925" width="8" height="2.6" fill="white" stroke="black" stroke-width="0.9"/>
<rect x="872" y="928.6" width="8" height="2.6" fill="white" stroke="black" stroke-width="0.9"/>
<text x="803.0" y="932" text-anchor="middle" font-size="9.5" font-weight="normal" font-style="normal" fill="#444">«artifact»</text>
<text x="803.0" y="950" text-anchor="middle" font-size="11" font-weight="normal" font-style="normal" fill="black">:KontrolPenyusunanKonten</text>
<rect x="514" y="966" width="186" height="40" fill="white" stroke="black" stroke-width="1.2"/>
<rect x="680" y="971" width="14" height="10" fill="white" stroke="black" stroke-width="1"/>
<rect x="676" y="973" width="8" height="2.6" fill="white" stroke="black" stroke-width="0.9"/>
<rect x="676" y="976.6" width="8" height="2.6" fill="white" stroke="black" stroke-width="0.9"/>
<text x="607.0" y="980" text-anchor="middle" font-size="9.5" font-weight="normal" font-style="normal" fill="#444">«artifact»</text>
<text x="607.0" y="998" text-anchor="middle" font-size="11" font-weight="normal" font-style="normal" fill="black">:KontrolPelacakanKonten</text>
<rect x="710" y="966" width="186" height="40" fill="white" stroke="black" stroke-width="1.2"/>
<rect x="876" y="971" width="14" height="10" fill="white" stroke="black" stroke-width="1"/>
<rect x="872" y="973" width="8" height="2.6" fill="white" stroke="black" stroke-width="0.9"/>
<rect x="872" y="976.6" width="8" height="2.6" fill="white" stroke="black" stroke-width="0.9"/>
<text x="803.0" y="980" text-anchor="middle" font-size="9.5" font-weight="normal" font-style="normal" fill="#444">«artifact»</text>
<text x="803.0" y="998" text-anchor="middle" font-size="11" font-weight="normal" font-style="normal" fill="black">:KontrolModerasiKonten</text>
<rect x="514" y="1014" width="186" height="40" fill="white" stroke="black" stroke-width="1.2"/>
<rect x="680" y="1019" width="14" height="10" fill="white" stroke="black" stroke-width="1"/>
<rect x="676" y="1021" width="8" height="2.6" fill="white" stroke="black" stroke-width="0.9"/>
<rect x="676" y="1024.6" width="8" height="2.6" fill="white" stroke="black" stroke-width="0.9"/>
<text x="607.0" y="1028" text-anchor="middle" font-size="9.5" font-weight="normal" font-style="normal" fill="#444">«artifact»</text>
<text x="607.0" y="1046" text-anchor="middle" font-size="11" font-weight="normal" font-style="normal" fill="black">:KontrolPengelolaanAkun</text>
<line x1="705.0" y1="790" x2="705.0" y2="666" stroke="black" stroke-width="1.5" stroke-dasharray="7,5"/>
<polyline points="709.5,676.0 705.0,666 700.5,676.0" fill="none" stroke="black" stroke-width="1.5"/>
<rect x="713.0" y="738" width="62" height="18" fill="white"/>
<text x="744.0" y="752" text-anchor="middle" font-size="11.5" font-weight="normal" font-style="normal" fill="black">«deploy»</text>
<rect x="924" y="790" width="406" height="326" fill="#fafafa" stroke="#555" stroke-width="1.2" stroke-dasharray="6,4" rx="8"/>
<text x="1127.0" y="811" text-anchor="middle" font-size="14" font-weight="bold" font-style="normal" fill="black">Model (12 komponen)</text>
<rect x="936" y="822" width="186" height="40" fill="white" stroke="black" stroke-width="1.2"/>
<rect x="1102" y="827" width="14" height="10" fill="white" stroke="black" stroke-width="1"/>
<rect x="1098" y="829" width="8" height="2.6" fill="white" stroke="black" stroke-width="0.9"/>
<rect x="1098" y="832.6" width="8" height="2.6" fill="white" stroke="black" stroke-width="0.9"/>
<text x="1029.0" y="836" text-anchor="middle" font-size="9.5" font-weight="normal" font-style="normal" fill="#444">«artifact»</text>
<text x="1029.0" y="854" text-anchor="middle" font-size="11" font-weight="normal" font-style="normal" fill="black">:Akun</text>
<rect x="1132" y="822" width="186" height="40" fill="white" stroke="black" stroke-width="1.2"/>
<rect x="1298" y="827" width="14" height="10" fill="white" stroke="black" stroke-width="1"/>
<rect x="1294" y="829" width="8" height="2.6" fill="white" stroke="black" stroke-width="0.9"/>
<rect x="1294" y="832.6" width="8" height="2.6" fill="white" stroke="black" stroke-width="0.9"/>
<text x="1225.0" y="836" text-anchor="middle" font-size="9.5" font-weight="normal" font-style="normal" fill="#444">«artifact»</text>
<text x="1225.0" y="854" text-anchor="middle" font-size="11" font-weight="normal" font-style="normal" fill="black">:Kurator</text>
<rect x="936" y="870" width="186" height="40" fill="white" stroke="black" stroke-width="1.2"/>
<rect x="1102" y="875" width="14" height="10" fill="white" stroke="black" stroke-width="1"/>
<rect x="1098" y="877" width="8" height="2.6" fill="white" stroke="black" stroke-width="0.9"/>
<rect x="1098" y="880.6" width="8" height="2.6" fill="white" stroke="black" stroke-width="0.9"/>
<text x="1029.0" y="884" text-anchor="middle" font-size="9.5" font-weight="normal" font-style="normal" fill="#444">«artifact»</text>
<text x="1029.0" y="902" text-anchor="middle" font-size="11" font-weight="normal" font-style="normal" fill="black">:Administrator</text>
<rect x="1132" y="870" width="186" height="40" fill="white" stroke="black" stroke-width="1.2"/>
<rect x="1298" y="875" width="14" height="10" fill="white" stroke="black" stroke-width="1"/>
<rect x="1294" y="877" width="8" height="2.6" fill="white" stroke="black" stroke-width="0.9"/>
<rect x="1294" y="880.6" width="8" height="2.6" fill="white" stroke="black" stroke-width="0.9"/>
<text x="1225.0" y="884" text-anchor="middle" font-size="9.5" font-weight="normal" font-style="normal" fill="#444">«artifact»</text>
<text x="1225.0" y="902" text-anchor="middle" font-size="11" font-weight="normal" font-style="normal" fill="black">:BidangHukum</text>
<rect x="936" y="918" width="186" height="40" fill="white" stroke="black" stroke-width="1.2"/>
<rect x="1102" y="923" width="14" height="10" fill="white" stroke="black" stroke-width="1"/>
<rect x="1098" y="925" width="8" height="2.6" fill="white" stroke="black" stroke-width="0.9"/>
<rect x="1098" y="928.6" width="8" height="2.6" fill="white" stroke="black" stroke-width="0.9"/>
<text x="1029.0" y="932" text-anchor="middle" font-size="9.5" font-weight="normal" font-style="normal" fill="#444">«artifact»</text>
<text x="1029.0" y="950" text-anchor="middle" font-size="11" font-weight="normal" font-style="normal" fill="black">:KelompokKasus</text>
<rect x="1132" y="918" width="186" height="40" fill="white" stroke="black" stroke-width="1.2"/>
<rect x="1298" y="923" width="14" height="10" fill="white" stroke="black" stroke-width="1"/>
<rect x="1294" y="925" width="8" height="2.6" fill="white" stroke="black" stroke-width="0.9"/>
<rect x="1294" y="928.6" width="8" height="2.6" fill="white" stroke="black" stroke-width="0.9"/>
<text x="1225.0" y="932" text-anchor="middle" font-size="9.5" font-weight="normal" font-style="normal" fill="#444">«artifact»</text>
<text x="1225.0" y="950" text-anchor="middle" font-size="11" font-weight="normal" font-style="normal" fill="black">:RangkumanKasus</text>
<rect x="936" y="966" width="186" height="40" fill="white" stroke="black" stroke-width="1.2"/>
<rect x="1102" y="971" width="14" height="10" fill="white" stroke="black" stroke-width="1"/>
<rect x="1098" y="973" width="8" height="2.6" fill="white" stroke="black" stroke-width="0.9"/>
<rect x="1098" y="976.6" width="8" height="2.6" fill="white" stroke="black" stroke-width="0.9"/>
<text x="1029.0" y="980" text-anchor="middle" font-size="9.5" font-weight="normal" font-style="normal" fill="#444">«artifact»</text>
<text x="1029.0" y="998" text-anchor="middle" font-size="11" font-weight="normal" font-style="normal" fill="black">:LangkahPenyelesaian</text>
<rect x="1132" y="966" width="186" height="40" fill="white" stroke="black" stroke-width="1.2"/>
<rect x="1298" y="971" width="14" height="10" fill="white" stroke="black" stroke-width="1"/>
<rect x="1294" y="973" width="8" height="2.6" fill="white" stroke="black" stroke-width="0.9"/>
<rect x="1294" y="976.6" width="8" height="2.6" fill="white" stroke="black" stroke-width="0.9"/>
<text x="1225.0" y="980" text-anchor="middle" font-size="9.5" font-weight="normal" font-style="normal" fill="#444">«artifact»</text>
<text x="1225.0" y="998" text-anchor="middle" font-size="11" font-weight="normal" font-style="normal" fill="black">:Checklist</text>
<rect x="936" y="1014" width="186" height="40" fill="white" stroke="black" stroke-width="1.2"/>
<rect x="1102" y="1019" width="14" height="10" fill="white" stroke="black" stroke-width="1"/>
<rect x="1098" y="1021" width="8" height="2.6" fill="white" stroke="black" stroke-width="0.9"/>
<rect x="1098" y="1024.6" width="8" height="2.6" fill="white" stroke="black" stroke-width="0.9"/>
<text x="1029.0" y="1028" text-anchor="middle" font-size="9.5" font-weight="normal" font-style="normal" fill="#444">«artifact»</text>
<text x="1029.0" y="1046" text-anchor="middle" font-size="11" font-weight="normal" font-style="normal" fill="black">:TemplatDokumen</text>
<rect x="1132" y="1014" width="186" height="40" fill="white" stroke="black" stroke-width="1.2"/>
<rect x="1298" y="1019" width="14" height="10" fill="white" stroke="black" stroke-width="1"/>
<rect x="1294" y="1021" width="8" height="2.6" fill="white" stroke="black" stroke-width="0.9"/>
<rect x="1294" y="1024.6" width="8" height="2.6" fill="white" stroke="black" stroke-width="0.9"/>
<text x="1225.0" y="1028" text-anchor="middle" font-size="9.5" font-weight="normal" font-style="normal" fill="#444">«artifact»</text>
<text x="1225.0" y="1046" text-anchor="middle" font-size="11" font-weight="normal" font-style="normal" fill="black">:Artikel</text>
<rect x="936" y="1062" width="186" height="40" fill="white" stroke="black" stroke-width="1.2"/>
<rect x="1102" y="1067" width="14" height="10" fill="white" stroke="black" stroke-width="1"/>
<rect x="1098" y="1069" width="8" height="2.6" fill="white" stroke="black" stroke-width="0.9"/>
<rect x="1098" y="1072.6" width="8" height="2.6" fill="white" stroke="black" stroke-width="0.9"/>
<text x="1029.0" y="1076" text-anchor="middle" font-size="9.5" font-weight="normal" font-style="normal" fill="#444">«artifact»</text>
<text x="1029.0" y="1094" text-anchor="middle" font-size="11" font-weight="normal" font-style="normal" fill="black">:LembagaBantuanHukum</text>
<rect x="1132" y="1062" width="186" height="40" fill="white" stroke="black" stroke-width="1.2"/>
<rect x="1298" y="1067" width="14" height="10" fill="white" stroke="black" stroke-width="1"/>
<rect x="1294" y="1069" width="8" height="2.6" fill="white" stroke="black" stroke-width="0.9"/>
<rect x="1294" y="1072.6" width="8" height="2.6" fill="white" stroke="black" stroke-width="0.9"/>
<text x="1225.0" y="1076" text-anchor="middle" font-size="9.5" font-weight="normal" font-style="normal" fill="#444">«artifact»</text>
<text x="1225.0" y="1094" text-anchor="middle" font-size="11" font-weight="normal" font-style="normal" fill="black">:RiwayatStatus</text>
<line x1="1127.0" y1="790" x2="1127.0" y2="666" stroke="black" stroke-width="1.5" stroke-dasharray="7,5"/>
<polyline points="1131.5,676.0 1127.0,666 1122.5,676.0" fill="none" stroke="black" stroke-width="1.5"/>
<rect x="1135.0" y="738" width="62" height="18" fill="white"/>
<text x="1166.0" y="752" text-anchor="middle" font-size="11.5" font-weight="normal" font-style="normal" fill="black">«deploy»</text>
<rect x="1376.0" y="790" width="210" height="46" fill="white" stroke="black" stroke-width="1.2"/>
<rect x="1566.0" y="795" width="14" height="10" fill="white" stroke="black" stroke-width="1"/>
<rect x="1562.0" y="797" width="8" height="2.6" fill="white" stroke="black" stroke-width="0.9"/>
<rect x="1562.0" y="800.6" width="8" height="2.6" fill="white" stroke="black" stroke-width="0.9"/>
<text x="1481.0" y="804" text-anchor="middle" font-size="9.5" font-weight="normal" font-style="normal" fill="#444">«artifact»</text>
<text x="1481.0" y="828" text-anchor="middle" font-size="11.5" font-weight="normal" font-style="normal" fill="black">:Penyimpanan Berkas</text>
<line x1="1481.0" y1="790" x2="1481.0" y2="666" stroke="black" stroke-width="1.5" stroke-dasharray="7,5"/>
<polyline points="1485.5,676.0 1481.0,666 1476.5,676.0" fill="none" stroke="black" stroke-width="1.5"/>
<rect x="1489.0" y="738" width="62" height="18" fill="white"/>
<text x="1520.0" y="752" text-anchor="middle" font-size="11.5" font-weight="normal" font-style="normal" fill="black">«deploy»</text>
<rect x="1872.0" y="790" width="190" height="46" fill="white" stroke="black" stroke-width="1.2"/>
<rect x="2042.0" y="795" width="14" height="10" fill="white" stroke="black" stroke-width="1"/>
<rect x="2038.0" y="797" width="8" height="2.6" fill="white" stroke="black" stroke-width="0.9"/>
<rect x="2038.0" y="800.6" width="8" height="2.6" fill="white" stroke="black" stroke-width="0.9"/>
<text x="1967.0" y="804" text-anchor="middle" font-size="9.5" font-weight="normal" font-style="normal" fill="#444">«artifact»</text>
<text x="1967.0" y="828" text-anchor="middle" font-size="11.5" font-weight="normal" font-style="normal" fill="black">:Database</text>
<line x1="1967.0" y1="790" x2="1967.0" y2="666" stroke="black" stroke-width="1.5" stroke-dasharray="7,5"/>
<polyline points="1971.5,676.0 1967.0,666 1962.5,676.0" fill="none" stroke="black" stroke-width="1.5"/>
<rect x="1975.0" y="738" width="62" height="18" fill="white"/>
<text x="2006.0" y="752" text-anchor="middle" font-size="11.5" font-weight="normal" font-style="normal" fill="black">«deploy»</text>
<rect x="60" y="1150" width="2020" height="150" fill="white" stroke="black" stroke-width="1.3"/>
<text x="76" y="1174" text-anchor="start" font-size="15" font-weight="bold" font-style="normal" fill="black">Key</text>
<polygon points="132.0,1198 141.0,1189 141.0,1223 132.0,1232" fill="#dde3ec" stroke="black" stroke-width="1.4"/>
<polygon points="76.0,1198 85.0,1189 141.0,1189 132.0,1198" fill="#f6f8fb" stroke="black" stroke-width="1.4"/>
<rect x="76.0" y="1198" width="56" height="34" fill="#eef2f7" stroke="black" stroke-width="1.4"/>
<text x="152.0" y="1212" text-anchor="start" font-size="12" font-weight="bold" font-style="normal" fill="black">Hardware node («Device»)</text>
<text x="152.0" y="1228" text-anchor="start" font-size="11" font-weight="normal" font-style="normal" fill="#333">dibaca: :NamaInstans (UML)</text>
<rect x="573.5" y="1196" width="56" height="34" fill="white" stroke="black" stroke-width="1.2"/>
<rect x="611.5" y="1200" width="14" height="10" fill="white" stroke="black" stroke-width="1"/>
<rect x="607.5" y="1202" width="8" height="2.6" fill="white" stroke="black" stroke-width="0.9"/>
<rect x="607.5" y="1205.6" width="8" height="2.6" fill="white" stroke="black" stroke-width="0.9"/>
<text x="649.5" y="1212" text-anchor="start" font-size="12" font-weight="bold" font-style="normal" fill="black">«artifact» (buatan sendiri)</text>
<text x="649.5" y="1228" text-anchor="start" font-size="11" font-weight="normal" font-style="normal" fill="#333">komponen/penyimpanan Tabel 2.1; boleh dipasang di &gt;1 node</text>
<rect x="1071.0" y="1196" width="56" height="34" fill="#cfcfcf" stroke="black" stroke-width="1.2"/>
<text x="1147.0" y="1212" text-anchor="start" font-size="12" font-weight="bold" font-style="normal" fill="black">Perangkat lunak pihak ketiga</text>
<text x="1147.0" y="1228" text-anchor="start" font-size="11" font-weight="normal" font-style="normal" fill="#333">Execution Environment, Database System, File System</text>
<line x1="1568.5" y1="1214" x2="1624.5" y2="1214" stroke="black" stroke-width="1.5" stroke-dasharray="7,5"/>
<polyline points="1614.5,1218.5 1624.5,1214 1614.5,1209.5" fill="none" stroke="black" stroke-width="1.5"/>
<text x="1644.5" y="1212" text-anchor="start" font-size="12" font-weight="bold" font-style="normal" fill="black">«deploy»</text>
<text x="1644.5" y="1228" text-anchor="start" font-size="11" font-weight="normal" font-style="normal" fill="#333">artifact dipasang pada node tujuan</text>
<line x1="76.0" y1="1270" x2="132.0" y2="1270" stroke="black" stroke-width="1.6"/>
<text x="84.0" y="1262" text-anchor="start" font-size="12" font-weight="normal" font-style="normal" fill="black">n</text>
<text x="124.0" y="1262" text-anchor="end" font-size="12" font-weight="normal" font-style="normal" fill="black">1</text>
<text x="152.0" y="1268" text-anchor="start" font-size="12" font-weight="bold" font-style="normal" fill="black">«internet» / «intranet»</text>
<text x="152.0" y="1284" text-anchor="start" font-size="11" font-weight="normal" font-style="normal" fill="#333">koneksi jaringan + multiplisitas</text>
<polygon points="629.5,1254 638.5,1245 638.5,1279 629.5,1288" fill="#dde3ec" stroke="black" stroke-width="1.4" stroke-dasharray="8,5"/>
<polygon points="573.5,1254 582.5,1245 638.5,1245 629.5,1254" fill="#f6f8fb" stroke="black" stroke-width="1.4" stroke-dasharray="8,5"/>
<rect x="573.5" y="1254" width="56" height="34" fill="white" stroke="black" stroke-width="1.4" stroke-dasharray="8,5"/>
<text x="649.5" y="1268" text-anchor="start" font-size="12" font-weight="bold" font-style="normal" fill="black">Sistem eksternal (garis putus-putus)</text>
<text x="649.5" y="1284" text-anchor="start" font-size="11" font-weight="normal" font-style="normal" fill="#333">bukan komponen Tabel 2.1</text>
<rect x="1071.0" y="1250" width="56" height="38" fill="#fafafa" stroke="#555" stroke-width="1.2" stroke-dasharray="6,4" rx="6"/>
<text x="1147.0" y="1268" text-anchor="start" font-size="12" font-weight="bold" font-style="normal" fill="black">Bingkai MVC (BAB 1)</text>
<text x="1147.0" y="1284" text-anchor="start" font-size="11" font-weight="normal" font-style="normal" fill="#333">«deploy» bingkai berlaku untuk semua artifact di dalamnya</text>
<polygon points="1568.5,1250 1610.5,1250 1624.5,1264 1624.5,1288 1568.5,1288" fill="#fffbe6" stroke="black" stroke-width="1"/>
<text x="1644.5" y="1268" text-anchor="start" font-size="12" font-weight="bold" font-style="normal" fill="black">Catatan (note)</text>
<text x="1644.5" y="1284" text-anchor="start" font-size="11" font-weight="normal" font-style="normal" fill="#333">rujukan Tabel 1.1 / SKPL</text>
</svg>